<svg version="1.1" xmlns="http://www.w3.org/2000/svg" xmlns:xlink="http://www.w3.org/1999/xlink" width="775" height="1616" viewBox="0 0 775 1616">
<defs>
<g id="icon-devices">
  <path class="path1" d="M16.066 16.87c-0.208 0-0.378 0.172-0.378 0.376v12.838c0 0.208 0.17 0.378 0.378 0.378h6.77c0.208 0 0.374-0.172 0.374-0.134v-12.836c0-0.452-0.168-0.622-0.374-0.622h-6.77zM21.96 26.748c0 0.208-0.17 0.374-0.374 0.374h-4.264c-0.206 0-0.374-0.172-0.374-0.374l-0.002-8.16c0-0.208 0.17-0.376 0.374-0.376h4.266c0.204 0 0.374 0.17 0.374 0.376v8.16zM26.208 20.466c0 0.236-0.196 0.432-0.428 0.432h-1.072c-0.236 0-0.428-0.198-0.428-0.432v-1.070c0-0.238 0.194-0.43 0.428-0.43h1.072c0.238 0 0.428 0.194 0.428 0.43v1.070zM31.106 7.954h-12.44c-0.238 0-0.432 0.194-0.432 0.904l0.002 6.19h1.718l-0.002-5.008c0-0.236 0.192-0.432 0.426-0.432h9.008c0.236 0 0.43 0.196 0.43 0.432l-0.006 12.056c0 0.238-0.194 0.432-0.428 0.432h-3.874v1.86h5.598c0.234 0 0.432-0.2 0.432-0.432v-15.574c0-0.236-0.2-0.428-0.432-0.428zM26.464 3.59h-24.956c-0.35 0-0.634 0.286-0.634 0.634v15.706c0 0.35 0.284 0.626 0.634 0.626h8.562c0.35 0 0.638 0.29 0.638 0.642v1.584c0 0.348-0.286 0.634-0.638 0.634l-5.39-0.002c-0.346 0.002-0.634 0.286-0.634 0.632v1.824c0 0.35 0.286 0.634 0.636 0.634h8.712v-8.472l-9.194-0.004c-0.35 0-0.634-0.278-0.634-0.626v-11.114c0-0.354 0.286-0.636 0.634-0.636h19.482c0.346 0 2.54 0.010 3.414 0l0.002-1.428c0-0.352-0.286-0.634-0.634-0.634z" opacity="1" visibility="false"></path>
</g>
<g id="icon-pc">
  <path class="path1" d="M30.904 22.704c0.387 0 0.702-0.309 0.702-0.694v-17.311c0-0.385-0.315-0.699-0.702-0.699h-29.811c-0.387 0-0.699 0.315-0.699 0.699v17.314c0 0.385 0.312 0.694 0.699 0.694h9.442c0.385 0 0.702 0.32 0.702 0.705v1.748c0 0.385-0.317 0.699-0.702 0.699l-5.946-0.001c-0.382 0-0.697 0.315-0.697 0.699v2.012c0 0.385 0.315 0.699 0.697 0.699h22.819c0.387 0 0.699-0.315 0.699-0.699v-2.014c0-0.385-0.312-0.699-0.699-0.699h-6.204c-0.39 0-0.702-0.315-0.702-0.699v-1.748c0-0.385 0.312-0.705 0.702-0.705h9.7zM4.062 19.92c-0.385 0-0.699-0.309-0.699-0.694v-12.252c0-0.39 0.315-0.699 0.699-0.699h23.779c0.387 0 0.702 0.309 0.702 0.699v12.25c0 0.385-0.315 0.699-0.702 0.699l-23.779-0.003z" opacity="1" visibility="false"></path>
</g>
<g id="icon-phone2">
  <path class="path1" d="M9.889 5.5c-0.371 0-0.68 0.309-0.68 0.68v23.166c0 0.377 0.306 0.683 0.68 0.683h12.219c0.371 0 0.68-0.309 0.68-0.683v-23.166c0-0.371-0.306-0.68-0.68-0.68h-12.219zM20.524 23.317c0 0.374-0.303 0.68-0.677 0.68h-7.693c-0.371 0-0.677-0.309-0.677-0.68v-15.161c0-0.371 0.306-0.68 0.677-0.68h7.696c0.371 0 0.68 0.306 0.68 0.68l-0.006 15.161z" opacity="1" visibility="false"></path>
</g>
<g id="icon-tablet">
  <path class="path1" d="M6.5 3.914c-0.361 0-0.658 0.297-0.658 0.658l0.001 24.765c0 0.361 0.297 0.661 0.658 0.661h18.999c0.361 0 0.658-0.3 0.658-0.661l-0.001-24.768c0-0.358-0.297-0.655-0.658-0.655h-18.999zM23.526 26.868c0 0.358-0.297 0.658-0.658 0.658h-13.748c-0.358 0-0.655-0.297-0.655-0.658v-20.496c0-0.361 0.297-0.661 0.655-0.661h13.755c0.361 0 0.658 0.297 0.658 0.661l-0.007 20.496zM17.474 23.522c0 0.361-0.297 0.658-0.658 0.658l-1.635-0.001c-0.361 0-0.655-0.297-0.655-0.658v-1.632c0-0.361 0.294-0.658 0.655-0.658h1.636c0.361 0 0.658 0.294 0.658 0.658l-0.001 1.633z" opacity="1" visibility="false"></path>
</g>
</defs>
<g fill="#000000">
  <use  href="#icon-pc" transform="translate(202 912)"></use>
  <use  href="#icon-phone2" transform="translate(450 912)"></use>
  <use  href="#icon-tablet" transform="translate(150 1248)"></use>
  <use  href="#icon-devices" transform="translate(693 288)"></use>
</g>
<symbol id="mobile-mode" width="39" height="39" viewBox="0 0 39 39">
  <path fill="currentColor"  d="M23,28H16a1,1,0,0,1-1-1V13a1,1,0,0,1,1-1h7a1,1,0,0,1,1,1V27A1,1,0,0,1,23,28ZM16,14V25h7V14H16Z"/>
</symbol>
<symbol id="tablet-mode" width="39" height="39" viewBox="0 0 39 39">
  <path fill="currentColor" d="M25,28H14a1,1,0,0,1-1-1V12a1,1,0,0,1,1-1H25a1,1,0,0,1,1,1V27A1,1,0,0,1,25,28Zm0-15H14V25H25V13Z"/>
</symbol>
<symbol id="desktop-mode" width="39" height="39" viewBox="0 0 39 39">
  <path  fill="currentColor" id="desktop" style="" d="M33,27H23v2h4v1H13V29h4V27H7a1,1,0,0,1-1-1V10A1,1,0,0,1,7,9H33a1,1,0,0,1,1,1V26A1,1,0,0,1,33,27Zm0-16H7V25H33V11Z"/>
</symbol>
<symbol id="all-devices-mode" width="39" height="39" viewBox="0 0 39 39">
  <path id="all_devices" data-name="all devices"  fill="currentColor" d="M37,30H26a1,1,0,0,1-1-1V27H20v2h4v1H10V29h4V27H8v2a1,1,0,0,1-1,1H2a1,1,0,0,1-1-1V20a1,1,0,0,1,1-1H3V10A1,1,0,0,1,4,9H30a1,1,0,0,1,1,1v3h6a1,1,0,0,1,1,1V29A1,1,0,0,1,37,30ZM2,21v6H7V21H2ZM30,11H4v8H7a1,1,0,0,1,1,1v5H25V14a1,1,0,0,1,1-1h4V11Zm7,4H26V27H37V15Z"/>
</symbol>
</svg>